<svg width="24" height="24" viewBox="0 0 24 24" fill="none" xmlns="http://www.w3.org/2000/svg">
<path d="M4 8L7 4.5L12 3L17 4.5L20 8V16L17 19.5L12 21L7 19.5L4 16V8Z" stroke="black" stroke-linecap="round" stroke-linejoin="round"/>
<path d="M7 9.5L9 7.5L12 6L15 7.5L17 9.5V14.6667L15 17L12 18L9 17L7 14.6667V9.5Z" stroke="black" stroke-linecap="round" stroke-linejoin="round"/>
<path d="M7 19.5L9 17" stroke="black" stroke-linecap="round" stroke-linejoin="round"/>
<path d="M15 17L17 19.5" stroke="black" stroke-linecap="round" stroke-linejoin="round"/>
<path d="M7 4.5L9 7.5" stroke="black" stroke-linecap="round" stroke-linejoin="round"/>
<path d="M15 7.5L17 4.5" stroke="black" stroke-linecap="round" stroke-linejoin="round"/>
<path d="M4 8L7 9.5" stroke="black" stroke-linecap="round" stroke-linejoin="round"/>
<path d="M12 3V6" stroke="black" stroke-linecap="round" stroke-linejoin="round"/>
<path d="M4 16L7 14.5" stroke="black" stroke-linecap="round" stroke-linejoin="round"/>
<path d="M12 21V18" stroke="black" stroke-linecap="round" stroke-linejoin="round"/>
<path d="M20 16L17 14.5" stroke="black" stroke-linecap="round" stroke-linejoin="round"/>
<path d="M17 9.5L20 8" stroke="black" stroke-linecap="round" stroke-linejoin="round"/>
</svg>
