<svg id="eHa6ZVk02Rm1" xmlns="http://www.w3.org/2000/svg" xmlns:xlink="http://www.w3.org/1999/xlink"
  viewBox="0 0 180 400" shape-rendering="geometricPrecision" text-rendering="geometricPrecision" width="180"
  height="400">

  <g id="b1" transform="matrix(1 0 0 1 0 0)">
    <path d="M6,7L7,15L10,17L13,15L14,7L10,4Z" fill="rgb(0,0,153)" stroke="rgb(0,0,0)" stroke-width="0.5"
      stroke-linecap="round" stroke-linejoin="round" />
    <path d="M10,4L6,7L10,10L14,7Z" fill="rgb(0,0,255)" stroke="rgb(0,0,0)" stroke-width="0.5" stroke-linecap="round"
      stroke-linejoin="round" />
    <path d="M10,10V17" fill="none" stroke="rgb(0,0,0)" stroke-width="0.5" stroke-linecap="round"
      stroke-linejoin="round" />
  </g>
  <g id="b2" transform="matrix(1 0 0 1 0 20)">
    <path d="M10,2L4,10L10,18L16,10Z" fill="rgb(0,0,153)" stroke="rgb(0,0,0)" stroke-width="0.5" stroke-linecap="round"
      stroke-linejoin="round" />
    <path d="M10,6L7,10L10,14L13,10Z" fill="rgb(0,0,255)" stroke="rgb(0,0,0)" stroke-width="0.5" stroke-linecap="round"
      stroke-linejoin="round" />
    <path d="M10,6V2M4,10H7M10,14V18M13,10H16" fill="none" stroke="rgb(0,0,0)" stroke-width="0.5" stroke-linecap="round"
      stroke-linejoin="round" />
  </g>
  <g id="b3" transform="matrix(1 0 0 1 0 40)">
    <path d="M10,1.5L3,6V14L10,18.5L17,14V6Z" fill="rgb(0,0,153)" stroke="rgb(0,0,0)" stroke-width="0.5"
      stroke-linecap="round" stroke-linejoin="round" />
    <path d="M14,7.5L10,5L6,7.5V12.5L10,15L14,12.5Z" fill="rgb(0,0,255)" stroke="rgb(0,0,0)" stroke-width="0.5"
      stroke-linecap="round" stroke-linejoin="round" />
    <path d="M10,5V1.5M3,6L6,7.5M3,14L6,12.5M10,18.5V15M17,14L14,12.5M17,6L14,7.5" fill="none" stroke="rgb(0,0,0)"
      stroke-width="0.5" stroke-linecap="round" stroke-linejoin="round" />
  </g>
  <g id="b4" transform="matrix(1 0 0 1 0 60)">
    <path d="M15,2H5L2,5V15L5,18H15L18,15V5Z" fill="rgb(0,0,153)" stroke="rgb(0,0,0)" stroke-width="0.5"
      stroke-linecap="round" stroke-linejoin="round" />
    <path d="M15,7L13,5H7L5,7V13L7,15H13L15,13Z" fill="rgb(0,0,255)" stroke="rgb(0,0,0)" stroke-width="0.5"
      stroke-linecap="round" stroke-linejoin="round" />
    <path d="M7,5L5,2M2,5L5,7M2,15L5,13M5,18L7,15M15,18L13,15M18,15L15,13M18,5L15,7M15,2L13,5" fill="none"
      stroke="rgb(0,0,0)" stroke-width="0.5" stroke-linecap="round" stroke-linejoin="round" />
  </g>
  <g id="b5" transform="matrix(1 0 0 1 0 80)">
    <path d="M16,2H4L1,6L10,19L19,6Z" fill="rgb(0,0,153)" stroke="rgb(0,0,0)" stroke-width="0.5" stroke-linecap="round"
      stroke-linejoin="round" />
    <path d="M10,19L13,6H19L16,2L13,6L10,2L7,6L4,2L1,6H13H7Z" fill="rgb(0,0,255)" stroke="rgb(0,0,0)" stroke-width="0.5"
      stroke-linecap="round" stroke-linejoin="round" />
  </g>

  <g id="d1" transform="matrix(1 0 0 1 20 0)">
    <path d="M6,7L7,15L10,17L13,15L14,7L10,4Z" fill="rgb(153,153,153)" stroke="rgb(0,0,0)" stroke-width="0.5"
      stroke-linecap="round" stroke-linejoin="round" />
    <path d="M10,4L6,7L10,10L14,7Z" fill="rgb(255,255,255)" stroke="rgb(0,0,0)" stroke-width="0.5"
      stroke-linecap="round" stroke-linejoin="round" />
    <path d="M10,10V17" fill="none" stroke="rgb(0,0,0)" stroke-width="0.5" stroke-linecap="round"
      stroke-linejoin="round" />
  </g>
  <g id="d2" transform="matrix(1 0 0 1 20 20)">
    <path d="M10,2L4,10L10,18L16,10Z" fill="rgb(153,153,153)" stroke="rgb(0,0,0)" stroke-width="0.5"
      stroke-linecap="round" stroke-linejoin="round" />
    <path d="M10,6L7,10L10,14L13,10Z" fill="rgb(255,255,255)" stroke="rgb(0,0,0)" stroke-width="0.5"
      stroke-linecap="round" stroke-linejoin="round" />
    <path d="M10,6V2M4,10H7M10,14V18M13,10H16" fill="none" stroke="rgb(0,0,0)" stroke-width="0.5" stroke-linecap="round"
      stroke-linejoin="round" />
  </g>
  <g id="d3" transform="matrix(1 0 0 1 20 40)">
    <path d="M10,1.5L3,6V14L10,18.5L17,14V6Z" fill="rgb(153,153,153)" stroke="rgb(0,0,0)" stroke-width="0.5"
      stroke-linecap="round" stroke-linejoin="round" />
    <path d="M14,7.5L10,5L6,7.5V12.5L10,15L14,12.5Z" fill="rgb(255,255,255)" stroke="rgb(0,0,0)" stroke-width="0.5"
      stroke-linecap="round" stroke-linejoin="round" />
    <path d="M10,5V1.5M3,6L6,7.5M3,14L6,12.5M10,18.5V15M17,14L14,12.5M17,6L14,7.5" fill="none" stroke="rgb(0,0,0)"
      stroke-width="0.5" stroke-linecap="round" stroke-linejoin="round" />
  </g>
  <g id="d4" transform="matrix(1 0 0 1 20 60)">
    <path d="M15,2H5L2,5V15L5,18H15L18,15V5Z" fill="rgb(153,153,153)" stroke="rgb(0,0,0)" stroke-width="0.5"
      stroke-linecap="round" stroke-linejoin="round" />
    <path d="M15,7L13,5H7L5,7V13L7,15H13L15,13Z" fill="rgb(255,255,255)" stroke="rgb(0,0,0)" stroke-width="0.5"
      stroke-linecap="round" stroke-linejoin="round" />
    <path d="M7,5L5,2M2,5L5,7M2,15L5,13M5,18L7,15M15,18L13,15M18,15L15,13M18,5L15,7M15,2L13,5" fill="none"
      stroke="rgb(0,0,0)" stroke-width="0.5" stroke-linecap="round" stroke-linejoin="round" />
  </g>
  <g id="d5" transform="matrix(1 0 0 1 20 80)">
    <path d="M16,2H4L1,6L10,19L19,6Z" fill="rgb(153,153,153)" stroke="rgb(0,0,0)" stroke-width="0.5"
      stroke-linecap="round" stroke-linejoin="round" />
    <path d="M10,19L13,6H19L16,2L13,6L10,2L7,6L4,2L1,6H13H7Z" fill="rgb(255,255,255)" stroke="rgb(0,0,0)"
      stroke-width="0.5" stroke-linecap="round" stroke-linejoin="round" />

  </g>

  <g id="e1" transform="matrix(1 0 0 1 40 0)">
    <path d="M6,7L7,15L10,17L13,15L14,7L10,4Z" fill="rgb(51,51,51)" stroke="rgb(0,0,0)" stroke-width="0.5"
      stroke-linecap="round" stroke-linejoin="round" />
    <path d="M10,4L6,7L10,10L14,7Z" fill="rgb(119,119,119)" stroke="rgb(0,0,0)" stroke-width="0.5"
      stroke-linecap="round" stroke-linejoin="round" />
    <path d="M10,10V17" fill="none" stroke="rgb(0,0,0)" stroke-width="0.5" stroke-linecap="round"
      stroke-linejoin="round" />
  </g>
  <g id="e2" transform="matrix(1 0 0 1 40 20)">
    <path d="M10,2L4,10L10,18L16,10Z" fill="rgb(51,51,51)" stroke="rgb(0,0,0)" stroke-width="0.5" stroke-linecap="round"
      stroke-linejoin="round" />
    <path d="M10,6L7,10L10,14L13,10Z" fill="rgb(119,119,119)" stroke="rgb(0,0,0)" stroke-width="0.5"
      stroke-linecap="round" stroke-linejoin="round" />
    <path d="M10,6V2M4,10H7M10,14V18M13,10H16" fill="none" stroke="rgb(0,0,0)" stroke-width="0.5" stroke-linecap="round"
      stroke-linejoin="round" />
  </g>
  <g id="e3" transform="matrix(1 0 0 1 40 40)">
    <path d="M10,1.5L3,6V14L10,18.5L17,14V6Z" fill="rgb(51,51,51)" stroke="rgb(0,0,0)" stroke-width="0.5"
      stroke-linecap="round" stroke-linejoin="round" />
    <path d="M14,7.5L10,5L6,7.5V12.5L10,15L14,12.5Z" fill="rgb(119,119,119)" stroke="rgb(0,0,0)" stroke-width="0.5"
      stroke-linecap="round" stroke-linejoin="round" />
    <path d="M10,5V1.5M3,6L6,7.5M3,14L6,12.5M10,18.5V15M17,14L14,12.5M17,6L14,7.5" fill="none" stroke="rgb(0,0,0)"
      stroke-width="0.5" stroke-linecap="round" stroke-linejoin="round" />
  </g>
  <g id="e4" transform="matrix(1 0 0 1 40 60)">
    <path d="M15,2H5L2,5V15L5,18H15L18,15V5Z" fill="rgb(51,51,51)" stroke="rgb(0,0,0)" stroke-width="0.5"
      stroke-linecap="round" stroke-linejoin="round" />
    <path d="M15,7L13,5H7L5,7V13L7,15H13L15,13Z" fill="rgb(119,119,119)" stroke="rgb(0,0,0)" stroke-width="0.5"
      stroke-linecap="round" stroke-linejoin="round" />
    <path d="M7,5L5,2M2,5L5,7M2,15L5,13M5,18L7,15M15,18L13,15M18,15L15,13M18,5L15,7M15,2L13,5" fill="none"
      stroke="rgb(0,0,0)" stroke-width="0.5" stroke-linecap="round" stroke-linejoin="round" />
  </g>
  <g id="e5" transform="matrix(1 0 0 1 40 80)">
    <path d="M16,2H4L1,6L10,19L19,6Z" fill="rgb(51,51,51)" stroke="rgb(0,0,0)" stroke-width="0.5" stroke-linecap="round"
      stroke-linejoin="round" />
    <path d="M10,19L13,6H19L16,2L13,6L10,2L7,6L4,2L1,6H13H7Z" fill="rgb(119,119,119)" stroke="rgb(0,0,0)"
      stroke-width="0.5" stroke-linecap="round" stroke-linejoin="round" />

  </g>

  <g id="g1" transform="matrix(1 0 0 1 60 0)">
    <path d="M6,7L7,15L10,17L13,15L14,7L10,4Z" fill="rgb(0,153,0)" stroke="rgb(0,0,0)" stroke-width="0.5"
      stroke-linecap="round" stroke-linejoin="round" />
    <path d="M10,4L6,7L10,10L14,7Z" fill="rgb(0,255,0)" stroke="rgb(0,0,0)" stroke-width="0.5" stroke-linecap="round"
      stroke-linejoin="round" />
    <path d="M10,10V17" fill="none" stroke="rgb(0,0,0)" stroke-width="0.5" stroke-linecap="round"
      stroke-linejoin="round" />
  </g>
  <g id="g2" transform="matrix(1 0 0 1 60 20)">
    <path d="M10,2L4,10L10,18L16,10Z" fill="rgb(0,153,0)" stroke="rgb(0,0,0)" stroke-width="0.5" stroke-linecap="round"
      stroke-linejoin="round" />
    <path d="M10,6L7,10L10,14L13,10Z" fill="rgb(0,255,0)" stroke="rgb(0,0,0)" stroke-width="0.5" stroke-linecap="round"
      stroke-linejoin="round" />
    <path d="M10,6V2M4,10H7M10,14V18M13,10H16" fill="none" stroke="rgb(0,0,0)" stroke-width="0.5" stroke-linecap="round"
      stroke-linejoin="round" />
  </g>
  <g id="g3" transform="matrix(1 0 0 1 60 40)">
    <path d="M10,1.5L3,6V14L10,18.5L17,14V6Z" fill="rgb(0,153,0)" stroke="rgb(0,0,0)" stroke-width="0.5"
      stroke-linecap="round" stroke-linejoin="round" />
    <path d="M14,7.5L10,5L6,7.5V12.5L10,15L14,12.5Z" fill="rgb(0,255,0)" stroke="rgb(0,0,0)" stroke-width="0.5"
      stroke-linecap="round" stroke-linejoin="round" />
    <path d="M10,5V1.5M3,6L6,7.5M3,14L6,12.5M10,18.5V15M17,14L14,12.5M17,6L14,7.5" fill="none" stroke="rgb(0,0,0)"
      stroke-width="0.5" stroke-linecap="round" stroke-linejoin="round" />
  </g>
  <g id="g4" transform="matrix(1 0 0 1 60 60)">
    <path d="M15,2H5L2,5V15L5,18H15L18,15V5Z" fill="rgb(0,153,0)" stroke="rgb(0,0,0)" stroke-width="0.5"
      stroke-linecap="round" stroke-linejoin="round" />
    <path d="M15,7L13,5H7L5,7V13L7,15H13L15,13Z" fill="rgb(0,255,0)" stroke="rgb(0,0,0)" stroke-width="0.5"
      stroke-linecap="round" stroke-linejoin="round" />
    <path d="M7,5L5,2M2,5L5,7M2,15L5,13M5,18L7,15M15,18L13,15M18,15L15,13M18,5L15,7M15,2L13,5" fill="none"
      stroke="rgb(0,0,0)" stroke-width="0.5" stroke-linecap="round" stroke-linejoin="round" />
  </g>
  <g id="g5" transform="matrix(1 0 0 1 60 80)">
    <path d="M16,2H4L1,6L10,19L19,6Z" fill="rgb(0,153,0)" stroke="rgb(0,0,0)" stroke-width="0.5" stroke-linecap="round"
      stroke-linejoin="round" />
    <path d="M10,19L13,6H19L16,2L13,6L10,2L7,6L4,2L1,6H13H7Z" fill="rgb(0,255,0)" stroke="rgb(0,0,0)" stroke-width="0.5"
      stroke-linecap="round" stroke-linejoin="round" />
  </g>

  <g id="p1" transform="matrix(1 0 0 1 80 0)">
    <path d="M6,7L7,15L10,17L13,15L14,7L10,4Z" fill="rgb(153,0,153)" stroke="rgb(0,0,0)" stroke-width="0.5"
      stroke-linecap="round" stroke-linejoin="round" />
    <path d="M10,4L6,7L10,10L14,7Z" fill="rgb(255,0,255)" stroke="rgb(0,0,0)" stroke-width="0.5" stroke-linecap="round"
      stroke-linejoin="round" />
    <path d="M10,10V17" fill="none" stroke="rgb(0,0,0)" stroke-width="0.5" stroke-linecap="round"
      stroke-linejoin="round" />
  </g>
  <g id="p2" transform="matrix(1 0 0 1 80 20)">
    <path d="M10,2L4,10L10,18L16,10Z" fill="rgb(153,0,153)" stroke="rgb(0,0,0)" stroke-width="0.5"
      stroke-linecap="round" stroke-linejoin="round" />
    <path d="M10,6L7,10L10,14L13,10Z" fill="rgb(255,0,255)" stroke="rgb(0,0,0)" stroke-width="0.5"
      stroke-linecap="round" stroke-linejoin="round" />
    <path d="M10,6V2M4,10H7M10,14V18M13,10H16" fill="none" stroke="rgb(0,0,0)" stroke-width="0.5" stroke-linecap="round"
      stroke-linejoin="round" />
  </g>
  <g id="p3" transform="matrix(1 0 0 1 80 40)">
    <path d="M10,1.5L3,6V14L10,18.5L17,14V6Z" fill="rgb(153,0,153)" stroke="rgb(0,0,0)" stroke-width="0.5"
      stroke-linecap="round" stroke-linejoin="round" />
    <path d="M14,7.5L10,5L6,7.5V12.5L10,15L14,12.5Z" fill="rgb(255,0,255)" stroke="rgb(0,0,0)" stroke-width="0.5"
      stroke-linecap="round" stroke-linejoin="round" />
    <path d="M10,5V1.5M3,6L6,7.5M3,14L6,12.5M10,18.5V15M17,14L14,12.5M17,6L14,7.5" fill="none" stroke="rgb(0,0,0)"
      stroke-width="0.5" stroke-linecap="round" stroke-linejoin="round" />
  </g>
  <g id="p4" transform="matrix(1 0 0 1 80 60)">
    <path d="M15,2H5L2,5V15L5,18H15L18,15V5Z" fill="rgb(153,0,153)" stroke="rgb(0,0,0)" stroke-width="0.5"
      stroke-linecap="round" stroke-linejoin="round" />
    <path d="M15,7L13,5H7L5,7V13L7,15H13L15,13Z" fill="rgb(255,0,255)" stroke="rgb(0,0,0)" stroke-width="0.5"
      stroke-linecap="round" stroke-linejoin="round" />
    <path d="M7,5L5,2M2,5L5,7M2,15L5,13M5,18L7,15M15,18L13,15M18,15L15,13M18,5L15,7M15,2L13,5" fill="none"
      stroke="rgb(0,0,0)" stroke-width="0.5" stroke-linecap="round" stroke-linejoin="round" />
  </g>
  <g id="p5" transform="matrix(1 0 0 1 80 80)">
    <path d="M16,2H4L1,6L10,19L19,6Z" fill="rgb(153,0,153)" stroke="rgb(0,0,0)" stroke-width="0.5"
      stroke-linecap="round" stroke-linejoin="round" />
    <path d="M10,19L13,6H19L16,2L13,6L10,2L7,6L4,2L1,6H13H7Z" fill="rgb(255,0,255)" stroke="rgb(0,0,0)"
      stroke-width="0.5" stroke-linecap="round" stroke-linejoin="round" />
  </g>

  <g id="q1" transform="matrix(1 0 0 1 100 0)">
    <path d="M6,7L7,15L10,17L13,15L14,7L10,4Z" fill="rgb(0,153,153)" stroke="rgb(0,0,0)" stroke-width="0.5"
      stroke-linecap="round" stroke-linejoin="round" />
    <path d="M10,4L6,7L10,10L14,7Z" fill="rgb(0,255,255)" stroke="rgb(0,0,0)" stroke-width="0.5" stroke-linecap="round"
      stroke-linejoin="round" />
    <path d="M10,10V17" fill="none" stroke="rgb(0,0,0)" stroke-width="0.5" stroke-linecap="round"
      stroke-linejoin="round" />
  </g>
  <g id="q2" transform="matrix(1 0 0 1 100 20)">
    <path d="M10,2L4,10L10,18L16,10Z" fill="rgb(0,153,153)" stroke="rgb(0,0,0)" stroke-width="0.5"
      stroke-linecap="round" stroke-linejoin="round" />
    <path d="M10,6L7,10L10,14L13,10Z" fill="rgb(0,255,255)" stroke="rgb(0,0,0)" stroke-width="0.5"
      stroke-linecap="round" stroke-linejoin="round" />
    <path d="M10,6V2M4,10H7M10,14V18M13,10H16" fill="none" stroke="rgb(0,0,0)" stroke-width="0.5" stroke-linecap="round"
      stroke-linejoin="round" />
  </g>
  <g id="q3" transform="matrix(1 0 0 1 100 40)">
    <path d="M10,1.5L3,6V14L10,18.5L17,14V6Z" fill="rgb(0,153,153)" stroke="rgb(0,0,0)" stroke-width="0.5"
      stroke-linecap="round" stroke-linejoin="round" />
    <path d="M14,7.5L10,5L6,7.5V12.5L10,15L14,12.5Z" fill="rgb(0,255,255)" stroke="rgb(0,0,0)" stroke-width="0.5"
      stroke-linecap="round" stroke-linejoin="round" />
    <path d="M10,5V1.5M3,6L6,7.5M3,14L6,12.5M10,18.5V15M17,14L14,12.5M17,6L14,7.5" fill="none" stroke="rgb(0,0,0)"
      stroke-width="0.5" stroke-linecap="round" stroke-linejoin="round" />
  </g>
  <g id="q4" transform="matrix(1 0 0 1 100 60)">
    <path d="M15,2H5L2,5V15L5,18H15L18,15V5Z" fill="rgb(0,153,153)" stroke="rgb(0,0,0)" stroke-width="0.5"
      stroke-linecap="round" stroke-linejoin="round" />
    <path d="M15,7L13,5H7L5,7V13L7,15H13L15,13Z" fill="rgb(0,255,255)" stroke="rgb(0,0,0)" stroke-width="0.5"
      stroke-linecap="round" stroke-linejoin="round" />
    <path d="M7,5L5,2M2,5L5,7M2,15L5,13M5,18L7,15M15,18L13,15M18,15L15,13M18,5L15,7M15,2L13,5" fill="none"
      stroke="rgb(0,0,0)" stroke-width="0.5" stroke-linecap="round" stroke-linejoin="round" />
  </g>
  <g id="q5" transform="matrix(1 0 0 1 100 80)">
    <path d="M16,2H4L1,6L10,19L19,6Z" fill="rgb(0,153,153)" stroke="rgb(0,0,0)" stroke-width="0.5"
      stroke-linecap="round" stroke-linejoin="round" />
    <path d="M10,19L13,6H19L16,2L13,6L10,2L7,6L4,2L1,6H13H7Z" fill="rgb(0,255,255)" stroke="rgb(0,0,0)"
      stroke-width="0.5" stroke-linecap="round" stroke-linejoin="round" />
  </g>

  <g id="r1" transform="matrix(1 0 0 1 120 0)">
    <path d="M6,7L7,15L10,17L13,15L14,7L10,4Z" fill="rgb(153,0,0)" stroke="rgb(0,0,0)" stroke-width="0.5"
      stroke-linecap="round" stroke-linejoin="round" />
    <path d="M10,4L6,7L10,10L14,7Z" fill="rgb(255,0,0)" stroke="rgb(0,0,0)" stroke-width="0.5" stroke-linecap="round"
      stroke-linejoin="round" />
    <path d="M10,10V17" fill="none" stroke="rgb(0,0,0)" stroke-width="0.5" stroke-linecap="round"
      stroke-linejoin="round" />
  </g>
  <g id="r2" transform="matrix(1 0 0 1 120 20)">
    <path d="M10,2L4,10L10,18L16,10Z" fill="rgb(153,0,0)" stroke="rgb(0,0,0)" stroke-width="0.5" stroke-linecap="round"
      stroke-linejoin="round" />
    <path d="M10,6L7,10L10,14L13,10Z" fill="rgb(255,0,0)" stroke="rgb(0,0,0)" stroke-width="0.5" stroke-linecap="round"
      stroke-linejoin="round" />
    <path d="M10,6V2M4,10H7M10,14V18M13,10H16" fill="none" stroke="rgb(0,0,0)" stroke-width="0.5" stroke-linecap="round"
      stroke-linejoin="round" />
  </g>
  <g id="r3" transform="matrix(1 0 0 1 120 40)">
    <path d="M10,1.5L3,6V14L10,18.5L17,14V6Z" fill="rgb(153,0,0)" stroke="rgb(0,0,0)" stroke-width="0.5"
      stroke-linecap="round" stroke-linejoin="round" />
    <path d="M14,7.5L10,5L6,7.5V12.5L10,15L14,12.5Z" fill="rgb(255,0,0)" stroke="rgb(0,0,0)" stroke-width="0.5"
      stroke-linecap="round" stroke-linejoin="round" />
    <path d="M10,5V1.5M3,6L6,7.5M3,14L6,12.5M10,18.5V15M17,14L14,12.5M17,6L14,7.5" fill="none" stroke="rgb(0,0,0)"
      stroke-width="0.5" stroke-linecap="round" stroke-linejoin="round" />
  </g>
  <g id="r4" transform="matrix(1 0 0 1 120 60)">
    <path d="M15,2H5L2,5V15L5,18H15L18,15V5Z" fill="rgb(153,0,0)" stroke="rgb(0,0,0)" stroke-width="0.5"
      stroke-linecap="round" stroke-linejoin="round" />
    <path d="M15,7L13,5H7L5,7V13L7,15H13L15,13Z" fill="rgb(255,0,0)" stroke="rgb(0,0,0)" stroke-width="0.5"
      stroke-linecap="round" stroke-linejoin="round" />
    <path d="M7,5L5,2M2,5L5,7M2,15L5,13M5,18L7,15M15,18L13,15M18,15L15,13M18,5L15,7M15,2L13,5" fill="none"
      stroke="rgb(0,0,0)" stroke-width="0.5" stroke-linecap="round" stroke-linejoin="round" />
  </g>
  <g id="r5" transform="matrix(1 0 0 1 120 80)">
    <path d="M16,2H4L1,6L10,19L19,6Z" fill="rgb(153,0,0)" stroke="rgb(0,0,0)" stroke-width="0.5" stroke-linecap="round"
      stroke-linejoin="round" />
    <path id="eHa6ZVk02Rm46" d="M10,19L13,6H19L16,2L13,6L10,2L7,6L4,2L1,6H13H7Z" fill="rgb(255,0,0)" stroke="rgb(0,0,0)"
      stroke-width="0.5" stroke-linecap="round" stroke-linejoin="round" />
  </g>

  <g id="y1" transform="matrix(1 0 0 1 140 0)">
    <path d="M6,7L7,15L10,17L13,15L14,7L10,4Z" fill="rgb(153,153,0)" stroke="rgb(0,0,0)" stroke-width="0.5"
      stroke-linecap="round" stroke-linejoin="round" />
    <path d="M10,4L6,7L10,10L14,7Z" fill="rgb(255,255,0)" stroke="rgb(0,0,0)" stroke-width="0.5" stroke-linecap="round"
      stroke-linejoin="round" />
    <path d="M10,10V17" fill="none" stroke="rgb(0,0,0)" stroke-width="0.5" stroke-linecap="round"
      stroke-linejoin="round" />
  </g>
  <g id="y2" transform="matrix(1 0 0 1 140 20)">
    <path d="M10,2L4,10L10,18L16,10Z" fill="rgb(153,153,0)" stroke="rgb(0,0,0)" stroke-width="0.5"
      stroke-linecap="round" stroke-linejoin="round" />
    <path d="M10,6L7,10L10,14L13,10Z" fill="rgb(255,255,0)" stroke="rgb(0,0,0)" stroke-width="0.5"
      stroke-linecap="round" stroke-linejoin="round" />
    <path d="M10,6V2M4,10H7M10,14V18M13,10H16" fill="none" stroke="rgb(0,0,0)" stroke-width="0.5" stroke-linecap="round"
      stroke-linejoin="round" />
  </g>
  <g id="y3" transform="matrix(1 0 0 1 140 40)">
    <path d="M10,1.5L3,6V14L10,18.5L17,14V6Z" fill="rgb(153,153,0)" stroke="rgb(0,0,0)" stroke-width="0.5"
      stroke-linecap="round" stroke-linejoin="round" />
    <path d="M14,7.5L10,5L6,7.5V12.5L10,15L14,12.5Z" fill="rgb(255,255,0)" stroke="rgb(0,0,0)" stroke-width="0.5"
      stroke-linecap="round" stroke-linejoin="round" />
    <path d="M10,5V1.5M3,6L6,7.5M3,14L6,12.5M10,18.5V15M17,14L14,12.5M17,6L14,7.5" fill="none" stroke="rgb(0,0,0)"
      stroke-width="0.5" stroke-linecap="round" stroke-linejoin="round" />
  </g>
  <g id="y4" transform="matrix(1 0 0 1 140 60)">
    <path d="M15,2H5L2,5V15L5,18H15L18,15V5Z" fill="rgb(153,153,0)" stroke="rgb(0,0,0)" stroke-width="0.5"
      stroke-linecap="round" stroke-linejoin="round" />
    <path d="M15,7L13,5H7L5,7V13L7,15H13L15,13Z" fill="rgb(255,255,0)" stroke="rgb(0,0,0)" stroke-width="0.5"
      stroke-linecap="round" stroke-linejoin="round" />
    <path d="M7,5L5,2M2,5L5,7M2,15L5,13M5,18L7,15M15,18L13,15M18,15L15,13M18,5L15,7M15,2L13,5" fill="none"
      stroke="rgb(0,0,0)" stroke-width="0.5" stroke-linecap="round" stroke-linejoin="round" />
  </g>
  <g id="y5" transform="matrix(1 0 0 1 140 80)">
    <path d="M16,2H4L1,6L10,19L19,6Z" fill="rgb(153,153,0)" stroke="rgb(0,0,0)" stroke-width="0.5"
      stroke-linecap="round" stroke-linejoin="round" />
    <path d="M10,19L13,6H19L16,2L13,6L10,2L7,6L4,2L1,6H13H7Z" fill="rgb(255,255,0)" stroke="rgb(0,0,0)"
      stroke-width="0.5" stroke-linecap="round" stroke-linejoin="round" />
  </g>

  <g id="silver" transform="matrix(1 0 0 1 0 120)">
    <path d="M13,2H7L4,5V18H16V5Z" fill="rgb(99,99,99)" stroke="rgb(0,0,0)" stroke-width="0.5" stroke-linecap="round"
      stroke-linejoin="round" />
    <path d="M7,2V15H13V2Z" fill="rgb(156,156,156)" stroke="rgb(0,0,0)" stroke-width="0.5" stroke-linecap="round"
      stroke-linejoin="round" />
    <path d="M7,15L4,18M13,15L16,18" fill="none" stroke="rgb(0,0,0)" stroke-width="0.5" stroke-linecap="round"
      stroke-linejoin="round" />
  </g>

  <g id="silver knight" transform="matrix(1 0 0 1 20 120)">
    <path d="M13,3H7L4,5V18H16V5Z" fill="rgb(99,99,99)" stroke="rgb(0,0,0)" stroke-width="0.5" stroke-linecap="round"
      stroke-linejoin="round" />
    <path d="M7,3V15H13V3Z" fill="rgb(156,156,156)" stroke="rgb(0,0,0)" stroke-width="0.5" stroke-linecap="round"
      stroke-linejoin="round" />
    <path d="M7,15L4,18M13,15L16,18" fill="none" stroke="rgb(0,0,0)" stroke-width="0.5" stroke-linecap="round"
      stroke-linejoin="round" />
    <path d="M10,1L3,4V10L8,13L6,7H9L10,10L11,7H14L12,13L17,10V4Z" fill="rgb(200,200,200)" stroke="rgb(0,0,0)"
      stroke-width="0.5" stroke-linecap="round" stroke-linejoin="round" />
  </g>

  <g id="rock" transform="matrix(1 0 0 1 0 280)">
    <path d="M12,3L7,5L4,9L3,17H14L17,15L16,7Z" fill="hsl(0, 0%, 85%)" stroke="black" stroke-width="0.5"
      stroke-linecap="round" stroke-linejoin="round" />
    <path d="M7,5L11,8L3,17" fill="none" stroke="black" stroke-width="0.5" stroke-linecap="round"
      stroke-linejoin="round" />
    <path d="M16,7L11,8L14,17" fill="none" stroke="black" stroke-width="0.5" stroke-linecap="round"
      stroke-linejoin="round" />
  </g>

  <g id="spider" transform="matrix(1 0 0 1 0 360)">
    <ellipse rx="4" ry="5" transform="matrix(1 0 0 1 10 8)" fill="rgb(108,108,108)" stroke="rgb(0,0,0)"
      stroke-width="0.5" />
    <ellipse rx="3" ry="2" transform="matrix(1 0 0 1 10 14.5)" fill="rgb(129,129,129)" stroke="rgb(0,0,0)"
      stroke-width="0.5" />
    <path d="M7.5,4L5,2L2,4" fill="none" stroke="rgb(0,0,0)" stroke-width="0.5" stroke-linecap="round"
      stroke-linejoin="round" />
    <path d="M12.5,4L15,2L18,4" fill="none" stroke="rgb(0,0,0)" stroke-width="0.5" stroke-linecap="round"
      stroke-linejoin="round" />
    <path d="M6,7L4.5,5.5L1.5,8" fill="none" stroke="rgb(0,0,0)" stroke-width="0.5" stroke-linecap="round"
      stroke-linejoin="round" />
    <path d="M14,7L15.5,5.5L18.5,8" fill="none" stroke="rgb(0,0,0)" stroke-width="0.5" stroke-linecap="round"
      stroke-linejoin="round" />
    <path d="M6,9.5L4,8.5L1.5,11" fill="none" stroke="rgb(0,0,0)" stroke-width="0.5" stroke-linecap="round"
      stroke-linejoin="round" />
    <path d="M14,9.5L16,8.5L18.5,11" fill="none" stroke="rgb(0,0,0)" stroke-width="0.5" stroke-linecap="round"
      stroke-linejoin="round" />
    <path d="M7,11.5L4.5,11L3,14" fill="none" stroke="rgb(0,0,0)" stroke-width="0.5" stroke-linecap="round"
      stroke-linejoin="round" />
    <path d="M13,11.5L15.5,11L17,14" fill="none" stroke="rgb(0,0,0)" stroke-width="0.5" stroke-linecap="round"
      stroke-linejoin="round" />
  </g>

</svg>